<svg id="visual" viewBox="0 0 960 540" width="960" height="540" xmlns="http://www.w3.org/2000/svg" xmlns:xlink="http://www.w3.org/1999/xlink" version="1.1"><path d="M0 344L16 333.3C32 322.7 64 301.3 96 284.8C128 268.3 160 256.7 192 265.5C224 274.3 256 303.7 288 314.8C320 326 352 319 384 331C416 343 448 374 480 393.2C512 412.3 544 419.7 576 406.8C608 394 640 361 672 319.7C704 278.3 736 228.7 768 213.5C800 198.3 832 217.7 864 251.3C896 285 928 333 944 357L960 381L960 541L944 541C928 541 896 541 864 541C832 541 800 541 768 541C736 541 704 541 672 541C640 541 608 541 576 541C544 541 512 541 480 541C448 541 416 541 384 541C352 541 320 541 288 541C256 541 224 541 192 541C160 541 128 541 96 541C64 541 32 541 16 541L0 541Z" fill="#65c6c4"></path><path d="M0 354L16 360C32 366 64 378 96 395.8C128 413.7 160 437.3 192 448.5C224 459.7 256 458.3 288 452.7C320 447 352 437 384 428C416 419 448 411 480 417.3C512 423.7 544 444.3 576 453C608 461.7 640 458.3 672 440.7C704 423 736 391 768 368C800 345 832 331 864 340.2C896 349.3 928 381.7 944 397.8L960 414L960 541L944 541C928 541 896 541 864 541C832 541 800 541 768 541C736 541 704 541 672 541C640 541 608 541 576 541C544 541 512 541 480 541C448 541 416 541 384 541C352 541 320 541 288 541C256 541 224 541 192 541C160 541 128 541 96 541C64 541 32 541 16 541L0 541Z" fill="#49abb5"></path><path d="M0 478L16 457.7C32 437.3 64 396.7 96 375.5C128 354.3 160 352.7 192 362.5C224 372.3 256 393.7 288 416.2C320 438.7 352 462.3 384 455.2C416 448 448 410 480 399.7C512 389.3 544 406.7 576 409.7C608 412.7 640 401.3 672 392.5C704 383.7 736 377.3 768 362.5C800 347.7 832 324.3 864 317.5C896 310.7 928 320.3 944 325.2L960 330L960 541L944 541C928 541 896 541 864 541C832 541 800 541 768 541C736 541 704 541 672 541C640 541 608 541 576 541C544 541 512 541 480 541C448 541 416 541 384 541C352 541 320 541 288 541C256 541 224 541 192 541C160 541 128 541 96 541C64 541 32 541 16 541L0 541Z" fill="#3290a5"></path><path d="M0 326L16 330.3C32 334.7 64 343.3 96 342.2C128 341 160 330 192 347.7C224 365.3 256 411.7 288 417.3C320 423 352 388 384 391.8C416 395.7 448 438.3 480 453.7C512 469 544 457 576 447.7C608 438.3 640 431.7 672 420.2C704 408.7 736 392.3 768 389.5C800 386.7 832 397.3 864 417.5C896 437.7 928 467.3 944 482.2L960 497L960 541L944 541C928 541 896 541 864 541C832 541 800 541 768 541C736 541 704 541 672 541C640 541 608 541 576 541C544 541 512 541 480 541C448 541 416 541 384 541C352 541 320 541 288 541C256 541 224 541 192 541C160 541 128 541 96 541C64 541 32 541 16 541L0 541Z" fill="#217692"></path><path d="M0 466L16 458C32 450 64 434 96 424.8C128 415.7 160 413.3 192 428.2C224 443 256 475 288 477C320 479 352 451 384 444.5C416 438 448 453 480 449.3C512 445.7 544 423.3 576 429.7C608 436 640 471 672 474C704 477 736 448 768 434.8C800 421.7 832 424.3 864 423.8C896 423.3 928 419.7 944 417.8L960 416L960 541L944 541C928 541 896 541 864 541C832 541 800 541 768 541C736 541 704 541 672 541C640 541 608 541 576 541C544 541 512 541 480 541C448 541 416 541 384 541C352 541 320 541 288 541C256 541 224 541 192 541C160 541 128 541 96 541C64 541 32 541 16 541L0 541Z" fill="#175d7d"></path><path d="M0 455L16 453.3C32 451.7 64 448.3 96 445.5C128 442.7 160 440.3 192 450C224 459.7 256 481.3 288 476C320 470.7 352 438.3 384 430.7C416 423 448 440 480 457.3C512 474.7 544 492.3 576 497.7C608 503 640 496 672 490.8C704 485.7 736 482.3 768 476.8C800 471.3 832 463.7 864 464.7C896 465.7 928 475.3 944 480.2L960 485L960 541L944 541C928 541 896 541 864 541C832 541 800 541 768 541C736 541 704 541 672 541C640 541 608 541 576 541C544 541 512 541 480 541C448 541 416 541 384 541C352 541 320 541 288 541C256 541 224 541 192 541C160 541 128 541 96 541C64 541 32 541 16 541L0 541Z" fill="#134466"></path><path d="M0 465L16 465.3C32 465.7 64 466.3 96 476C128 485.7 160 504.3 192 511.5C224 518.7 256 514.3 288 509C320 503.7 352 497.3 384 492.8C416 488.3 448 485.7 480 480.2C512 474.7 544 466.3 576 467.8C608 469.3 640 480.7 672 484.7C704 488.7 736 485.3 768 485.7C800 486 832 490 864 485.3C896 480.7 928 467.3 944 460.7L960 454L960 541L944 541C928 541 896 541 864 541C832 541 800 541 768 541C736 541 704 541 672 541C640 541 608 541 576 541C544 541 512 541 480 541C448 541 416 541 384 541C352 541 320 541 288 541C256 541 224 541 192 541C160 541 128 541 96 541C64 541 32 541 16 541L0 541Z" fill="#112d4e"></path></svg>