<svg  preserveAspectRatio = "none" viewBox="0 0 1440 493" fill="none" xmlns="http://www.w3.org/2000/svg">
<path d="M417.786 8.78208C207.611 -33.0584 -114.91 88.1936 -114.91 88.1936V507.025L1467.05 516.845L1499.84 257.69C1499.84 257.69 1423.51 191.514 1311.17 194.502C1198.82 197.491 1108.52 269.217 958.009 257.69C807.499 246.163 627.962 50.6225 417.786 8.78208Z" fill="url(#paint0_linear_35_61)" style="mix-blend-mode:screen"/>
<path d="M341.994 48.9148C226.869 114.967 63.7308 147.337 -125.123 138.573L-152 544.169H1472.43V308.923C1472.43 308.923 1307.41 182.548 1255.8 259.398C1204.2 336.247 1206.69 284.427 964.459 308.923C722.224 333.419 457.119 -17.1377 341.994 48.9148Z" fill="url(#paint1_linear_35_61)"/>
<path fill-rule="evenodd" clip-rule="evenodd" d="M-114.91 213.778L-24.1266 200.207C66.657 186.637 248.224 159.496 429.791 200.207C611.358 240.919 792.926 351.293 974.493 378.435C1156.06 405.576 1337.63 351.293 1428.41 323.247L1519.19 296.106V501.475H1428.41C1337.63 501.475 1156.06 501.475 974.493 501.475C792.926 501.475 611.358 501.475 429.791 501.475C248.224 501.475 66.657 501.475 -24.1266 501.475H-114.91V213.778Z" fill="#2158A8"/>
<path d="M236.1 384.065C45.8126 442.983 -142.862 345.213 -142.862 345.213V551H1455.77C1455.77 551 1617.03 229.939 1466.52 369.549C1316.01 509.16 1228.93 396.873 1062.29 441.703C895.655 486.532 861.252 430.175 683.866 384.065C506.48 337.955 426.387 325.147 236.1 384.065Z" fill="url(#paint2_linear_35_61)" style="mix-blend-mode:multiply"/>
<defs>
<linearGradient id="paint0_linear_35_61" x1="692.466" y1="0" x2="692.466" y2="516.845" gradientUnits="userSpaceOnUse">
<stop stop-color="#F9F7F7"/>
<stop offset="0.9999" stop-color="#F9F7F7"/>
<stop offset="1" stop-color="#F9F7F7" stop-opacity="0"/>
</linearGradient>
<linearGradient id="paint1_linear_35_61" x1="660.214" y1="40.6133" x2="660.214" y2="544.169" gradientUnits="userSpaceOnUse">
<stop stop-color="#2E88C7"/>
<stop offset="1" stop-color="#2E88C7" stop-opacity="0"/>
</linearGradient>
<linearGradient id="paint2_linear_35_61" x1="693.935" y1="334.376" x2="693.935" y2="551" gradientUnits="userSpaceOnUse">
<stop stop-color="#232A5C"/>
<stop offset="1" stop-color="#232A5C" stop-opacity="0"/>
</linearGradient>
</defs>
</svg>
