<svg id="visual" viewBox="0 0 960 540" width="960" height="540" xmlns="http://www.w3.org/2000/svg" xmlns:xlink="http://www.w3.org/1999/xlink" version="1.1"><rect x="0" y="0" width="960" height="540" fill="#408ab4"></rect><path d="M0 279L16 277.5C32 276 64 273 96 275.5C128 278 160 286 192 283.2C224 280.3 256 266.7 288 257.8C320 249 352 245 384 254.8C416 264.7 448 288.3 480 298.8C512 309.3 544 306.7 576 304.2C608 301.7 640 299.3 672 296.2C704 293 736 289 768 280.8C800 272.7 832 260.3 864 257C896 253.7 928 259.3 944 262.2L960 265L960 541L944 541C928 541 896 541 864 541C832 541 800 541 768 541C736 541 704 541 672 541C640 541 608 541 576 541C544 541 512 541 480 541C448 541 416 541 384 541C352 541 320 541 288 541C256 541 224 541 192 541C160 541 128 541 96 541C64 541 32 541 16 541L0 541Z" fill="#a1e0df"></path><path d="M0 333L16 334.7C32 336.3 64 339.7 96 333.8C128 328 160 313 192 311.3C224 309.7 256 321.3 288 331.7C320 342 352 351 384 351.5C416 352 448 344 480 340.8C512 337.7 544 339.3 576 332.7C608 326 640 311 672 307.7C704 304.3 736 312.7 768 316.8C800 321 832 321 864 323.7C896 326.3 928 331.7 944 334.3L960 337L960 541L944 541C928 541 896 541 864 541C832 541 800 541 768 541C736 541 704 541 672 541C640 541 608 541 576 541C544 541 512 541 480 541C448 541 416 541 384 541C352 541 320 541 288 541C256 541 224 541 192 541C160 541 128 541 96 541C64 541 32 541 16 541L0 541Z" fill="#71b1bd"></path><path d="M0 394L16 396.2C32 398.3 64 402.7 96 405C128 407.3 160 407.7 192 397.8C224 388 256 368 288 358.7C320 349.3 352 350.7 384 351.5C416 352.3 448 352.7 480 360.3C512 368 544 383 576 384.7C608 386.3 640 374.7 672 371.7C704 368.7 736 374.3 768 374.7C800 375 832 370 864 364.7C896 359.3 928 353.7 944 350.8L960 348L960 541L944 541C928 541 896 541 864 541C832 541 800 541 768 541C736 541 704 541 672 541C640 541 608 541 576 541C544 541 512 541 480 541C448 541 416 541 384 541C352 541 320 541 288 541C256 541 224 541 192 541C160 541 128 541 96 541C64 541 32 541 16 541L0 541Z" fill="#48839a"></path><path d="M0 396L16 400.8C32 405.7 64 415.3 96 424.2C128 433 160 441 192 440.3C224 439.7 256 430.3 288 422.2C320 414 352 407 384 402.8C416 398.7 448 397.3 480 396.7C512 396 544 396 576 404.7C608 413.3 640 430.7 672 433.7C704 436.7 736 425.3 768 421.2C800 417 832 420 864 425.8C896 431.7 928 440.3 944 444.7L960 449L960 541L944 541C928 541 896 541 864 541C832 541 800 541 768 541C736 541 704 541 672 541C640 541 608 541 576 541C544 541 512 541 480 541C448 541 416 541 384 541C352 541 320 541 288 541C256 541 224 541 192 541C160 541 128 541 96 541C64 541 32 541 16 541L0 541Z" fill="#285775"></path><path d="M0 462L16 462.3C32 462.7 64 463.3 96 466.7C128 470 160 476 192 477.5C224 479 256 476 288 476.3C320 476.7 352 480.3 384 477.2C416 474 448 464 480 461.2C512 458.3 544 462.7 576 467.2C608 471.7 640 476.3 672 476.2C704 476 736 471 768 471.2C800 471.3 832 476.7 864 481.7C896 486.7 928 491.3 944 493.7L960 496L960 541L944 541C928 541 896 541 864 541C832 541 800 541 768 541C736 541 704 541 672 541C640 541 608 541 576 541C544 541 512 541 480 541C448 541 416 541 384 541C352 541 320 541 288 541C256 541 224 541 192 541C160 541 128 541 96 541C64 541 32 541 16 541L0 541Z" fill="#112d4e"></path></svg>