<?xml version="1.0" encoding="UTF-8" standalone="no"?><!DOCTYPE svg PUBLIC "-//W3C//DTD SVG 1.1//EN" "http://www.w3.org/Graphics/SVG/1.1/DTD/svg11.dtd"><svg width="100%" height="100%" viewBox="0 0 4000 2250" version="1.1" xmlns="http://www.w3.org/2000/svg" xmlns:xlink="http://www.w3.org/1999/xlink" xml:space="preserve" xmlns:serif="http://www.serif.com/" style="fill-rule:evenodd;clip-rule:evenodd;stroke-linejoin:round;stroke-miterlimit:2;"><path d="M0,1162.5l66.667,-6.25c66.666,-6.25 200,-18.75 333.333,-8.333c133.333,10.416 266.667,43.75 400,32.083c133.333,-12.083 266.667,-68.75 400,-105.833c133.333,-36.667 266.667,-53.334 400,-12.5c133.333,41.25 266.667,139.583 400,183.333c133.333,43.75 266.667,32.917 400,22.5c133.333,-10.417 266.667,-20.417 400,-33.333c133.333,-13.334 266.667,-30 400,-64.167c133.333,-33.75 266.667,-85.417 400,-99.167c133.333,-13.75 266.667,9.584 333.333,21.667l66.667,11.667l0,1150l-4000,-0l0,-1091.67Z" style="fill:#b4d6e4;fill-rule:nonzero;"/><path d="M0,1387.5l66.667,7.083c66.666,6.667 200,20.834 333.333,-3.75c133.333,-24.166 266.667,-86.666 400,-93.75c133.333,-6.666 266.667,41.667 400,85c133.333,42.917 266.667,80.417 400,82.5c133.333,2.084 266.667,-31.25 400,-44.583c133.333,-12.917 266.667,-6.25 400,-33.75c133.333,-27.917 266.667,-90.417 400,-104.167c133.333,-14.166 266.667,20.834 400,37.917c133.333,17.5 266.667,17.5 400,28.75c133.333,10.833 266.667,33.333 333.333,44.167l66.667,11.25l0,850l-4000,-0l0,-866.667Z" style="fill:#85a9bd;fill-rule:nonzero;"/><path d="M0,1641.67l66.667,9.166c66.666,8.75 200,27.084 333.333,36.667c133.333,9.583 266.667,11.25 400,-30c133.333,-40.833 266.667,-124.167 400,-162.917c133.333,-39.166 266.667,-33.333 400,-30c133.333,3.334 266.667,5 400,36.667c133.333,32.083 266.667,94.583 400,101.667c133.333,6.666 266.667,-41.667 400,-54.167c133.333,-12.5 266.667,10.833 400,12.5c133.333,1.25 266.667,-19.583 400,-41.667c133.333,-22.5 266.667,-45.833 333.333,-57.916l66.667,-11.667l0,804.167l-4000,-0l0,-612.5Z" style="fill:#5b7d97;fill-rule:nonzero;"/><path d="M0,1650l66.667,20c66.666,20.417 200,60.417 333.333,97.5c133.333,36.667 266.667,70 400,67.083c133.333,-2.5 266.667,-41.666 400,-75.416c133.333,-34.167 266.667,-63.334 400,-80.834c133.333,-17.083 266.667,-22.916 400,-25.416c133.333,-2.917 266.667,-2.917 400,33.333c133.333,35.833 266.667,108.333 400,120.833c133.333,12.5 266.667,-35 400,-52.083c133.333,-17.5 266.667,-5 400,19.167c133.333,24.583 266.667,60.416 333.333,78.75l66.667,17.916l0,383.334l-4000,-0l0,-604.167Z" style="fill:#355472;fill-rule:nonzero;"/><path d="M0,1925l66.667,1.25c66.666,1.667 200,4.167 333.333,18.333c133.333,13.75 266.667,38.75 400,45c133.333,6.25 266.667,-6.25 400,-5c133.333,1.667 266.667,16.667 400,3.75c133.333,-13.333 266.667,-55 400,-66.666c133.333,-12.084 266.667,6.25 400,25c133.333,18.75 266.667,37.916 400,37.5c133.333,-0.834 266.667,-21.667 400,-20.834c133.333,0.417 266.667,22.917 400,43.75c133.333,20.834 266.667,40 333.333,50l66.667,9.584l0,187.5l-4000,-0l0,-329.167Z" style="fill:#112d4e;fill-rule:nonzero;"/></svg>